<svg xmlns="http://www.w3.org/2000/svg" xmlns:xlink="http://www.w3.org/1999/xlink" width="200" zoomAndPan="magnify" viewBox="0 0 150 74.999997" height="100" preserveAspectRatio="xMidYMid meet" version="1.0"><defs><g/><clipPath id="efd4a793b5"><path d="M 45.117188 16 L 76 16 L 76 42.609375 L 45.117188 42.609375 Z M 45.117188 16 " clip-rule="nonzero"/></clipPath><clipPath id="b08174c13e"><path d="M 75 2.109375 L 105.117188 2.109375 L 105.117188 29 L 75 29 Z M 75 2.109375 " clip-rule="nonzero"/></clipPath></defs><g clip-path="url(#efd4a793b5)"><path fill="#19191c" d="M 65.320312 34.851562 L 65.320312 38.515625 L 48.78125 30.804688 L 48.78125 27.828125 L 65.320312 20.113281 L 65.320312 23.78125 L 52.8125 29.28125 L 52.8125 29.351562 Z M 75.144531 16.039062 L 47.484375 16.039062 C 46.179688 16.039062 45.121094 17.101562 45.121094 18.414062 L 45.121094 40.21875 C 45.121094 41.527344 46.179688 42.589844 47.484375 42.589844 L 67.464844 42.589844 L 75.144531 16.039062 " fill-opacity="1" fill-rule="nonzero"/></g><g clip-path="url(#b08174c13e)"><path fill="#4a9a54" d="M 101.460938 16.984375 L 84.921875 24.59375 L 84.921875 20.925781 L 97.703125 15.425781 L 97.703125 15.359375 L 84.921875 9.855469 L 84.921875 6.191406 L 101.460938 13.800781 Z M 82.820312 2.117188 L 75.144531 28.667969 L 102.757812 28.667969 C 104.0625 28.667969 105.121094 27.605469 105.121094 26.292969 L 105.121094 4.488281 C 105.121094 3.179688 104.0625 2.117188 102.757812 2.117188 L 82.820312 2.117188 " fill-opacity="1" fill-rule="nonzero"/></g><g fill="#1e2122" fill-opacity="1"><g transform="translate(0.675003, 72.12445)"><g><path d="M 13.109375 -3.9375 C 14.273438 -3.9375 15.363281 -4.175781 16.375 -4.65625 C 17.394531 -5.144531 18.296875 -5.847656 19.078125 -6.765625 L 22.09375 -3.78125 C 21.039062 -2.53125 19.691406 -1.535156 18.046875 -0.796875 C 16.410156 -0.0546875 14.722656 0.3125 12.984375 0.3125 C 11.316406 0.3125 9.753906 0.0195312 8.296875 -0.5625 C 6.847656 -1.15625 5.59375 -1.960938 4.53125 -2.984375 C 3.476562 -4.003906 2.648438 -5.210938 2.046875 -6.609375 C 1.441406 -8.003906 1.140625 -9.503906 1.140625 -11.109375 C 1.140625 -12.722656 1.445312 -14.234375 2.0625 -15.640625 C 2.675781 -17.046875 3.507812 -18.253906 4.5625 -19.265625 C 5.625 -20.285156 6.878906 -21.09375 8.328125 -21.6875 C 9.785156 -22.28125 11.335938 -22.578125 12.984375 -22.578125 C 14.765625 -22.578125 16.488281 -22.195312 18.15625 -21.4375 C 19.832031 -20.6875 21.1875 -19.679688 22.21875 -18.421875 L 19.109375 -15.328125 C 18.328125 -16.304688 17.40625 -17.050781 16.34375 -17.5625 C 15.289062 -18.082031 14.171875 -18.34375 12.984375 -18.34375 C 11.992188 -18.34375 11.054688 -18.15625 10.171875 -17.78125 C 9.296875 -17.414062 8.539062 -16.910156 7.90625 -16.265625 C 7.269531 -15.617188 6.769531 -14.859375 6.40625 -13.984375 C 6.050781 -13.109375 5.875 -12.148438 5.875 -11.109375 C 5.875 -10.097656 6.054688 -9.148438 6.421875 -8.265625 C 6.796875 -7.390625 7.304688 -6.632812 7.953125 -6 C 8.597656 -5.363281 9.359375 -4.859375 10.234375 -4.484375 C 11.117188 -4.117188 12.078125 -3.9375 13.109375 -3.9375 Z M 13.109375 -3.9375 "/></g></g></g><g fill="#1e2122" fill-opacity="1"><g transform="translate(22.992359, 72.12445)"><g><path d="M 16.546875 -2.0625 C 15.523438 -1.238281 14.476562 -0.632812 13.40625 -0.25 C 12.34375 0.125 11.15625 0.3125 9.84375 0.3125 C 8.59375 0.3125 7.421875 0.09375 6.328125 -0.34375 C 5.242188 -0.789062 4.300781 -1.394531 3.5 -2.15625 C 2.707031 -2.914062 2.082031 -3.816406 1.625 -4.859375 C 1.175781 -5.910156 0.953125 -7.039062 0.953125 -8.25 C 0.953125 -9.4375 1.164062 -10.550781 1.59375 -11.59375 C 2.03125 -12.644531 2.628906 -13.554688 3.390625 -14.328125 C 4.160156 -15.109375 5.066406 -15.71875 6.109375 -16.15625 C 7.160156 -16.601562 8.28125 -16.828125 9.46875 -16.828125 C 10.625 -16.828125 11.703125 -16.597656 12.703125 -16.140625 C 13.710938 -15.691406 14.582031 -15.070312 15.3125 -14.28125 C 16.050781 -13.5 16.625 -12.5625 17.03125 -11.46875 C 17.445312 -10.382812 17.65625 -9.207031 17.65625 -7.9375 L 17.65625 -6.796875 L 5.328125 -6.796875 C 5.628906 -5.753906 6.203125 -4.914062 7.046875 -4.28125 C 7.890625 -3.644531 8.882812 -3.328125 10.03125 -3.328125 C 10.75 -3.328125 11.425781 -3.441406 12.0625 -3.671875 C 12.695312 -3.910156 13.238281 -4.242188 13.6875 -4.671875 Z M 9.359375 -13.234375 C 8.367188 -13.234375 7.515625 -12.929688 6.796875 -12.328125 C 6.078125 -11.734375 5.578125 -10.925781 5.296875 -9.90625 L 13.40625 -9.90625 C 13.125 -10.875 12.617188 -11.671875 11.890625 -12.296875 C 11.160156 -12.921875 10.316406 -13.234375 9.359375 -13.234375 Z M 9.359375 -13.234375 "/></g></g></g><g fill="#1e2122" fill-opacity="1"><g transform="translate(41.119233, 72.12445)"><g><path d="M 1.71875 0 L 1.71875 -16.546875 L 6.0625 -16.546875 L 6.0625 -14.734375 C 6.59375 -15.453125 7.234375 -15.992188 7.984375 -16.359375 C 8.734375 -16.734375 9.566406 -16.921875 10.484375 -16.921875 C 10.898438 -16.898438 11.25 -16.863281 11.53125 -16.8125 C 11.820312 -16.757812 12.070312 -16.671875 12.28125 -16.546875 L 12.28125 -12.734375 C 11.96875 -12.878906 11.617188 -12.988281 11.234375 -13.0625 C 10.859375 -13.132812 10.46875 -13.171875 10.0625 -13.171875 C 9.21875 -13.171875 8.441406 -12.957031 7.734375 -12.53125 C 7.023438 -12.113281 6.46875 -11.503906 6.0625 -10.703125 L 6.0625 0 Z M 1.71875 0 "/></g></g></g><g fill="#1e2122" fill-opacity="1"><g transform="translate(53.563554, 72.12445)"><g><path d="M 3.96875 -4.671875 L 3.96875 -12.890625 L 0.578125 -12.890625 L 0.578125 -16.546875 L 3.96875 -16.546875 L 3.96875 -20.765625 L 8.3125 -21.75 L 8.3125 -16.546875 L 13.015625 -16.546875 L 13.015625 -12.890625 L 8.3125 -12.890625 L 8.3125 -5.5625 C 8.3125 -4.769531 8.476562 -4.210938 8.8125 -3.890625 C 9.15625 -3.578125 9.753906 -3.421875 10.609375 -3.421875 C 11.003906 -3.421875 11.378906 -3.445312 11.734375 -3.5 C 12.097656 -3.5625 12.492188 -3.664062 12.921875 -3.8125 L 12.921875 -0.25 C 12.453125 -0.101562 11.890625 0.015625 11.234375 0.109375 C 10.578125 0.203125 10.019531 0.25 9.5625 0.25 C 7.71875 0.25 6.320312 -0.164062 5.375 -1 C 4.4375 -1.832031 3.96875 -3.054688 3.96875 -4.671875 Z M 3.96875 -4.671875 "/></g></g></g><g fill="#1e2122" fill-opacity="1"><g transform="translate(66.547567, 72.12445)"><g><path d="M 3.875 -18.515625 C 3.195312 -18.515625 2.613281 -18.753906 2.125 -19.234375 C 1.632812 -19.722656 1.390625 -20.304688 1.390625 -20.984375 C 1.390625 -21.660156 1.632812 -22.242188 2.125 -22.734375 C 2.613281 -23.222656 3.195312 -23.46875 3.875 -23.46875 C 4.550781 -23.46875 5.128906 -23.222656 5.609375 -22.734375 C 6.097656 -22.242188 6.34375 -21.660156 6.34375 -20.984375 C 6.34375 -20.304688 6.097656 -19.722656 5.609375 -19.234375 C 5.128906 -18.753906 4.550781 -18.515625 3.875 -18.515625 Z M 6.0625 -16.546875 L 6.0625 0 L 1.71875 0 L 1.71875 -16.546875 Z M 6.0625 -16.546875 "/></g></g></g><g fill="#4a9a54" fill-opacity="1"><g transform="translate(73.811716, 72.12445)"><g><path d="M 2 0 L 2 -22.21875 L 10.546875 -22.21875 C 12.191406 -22.21875 13.734375 -21.929688 15.171875 -21.359375 C 16.609375 -20.796875 17.851562 -20.015625 18.90625 -19.015625 C 19.957031 -18.023438 20.78125 -16.84375 21.375 -15.46875 C 21.976562 -14.09375 22.28125 -12.617188 22.28125 -11.046875 C 22.28125 -9.503906 21.976562 -8.054688 21.375 -6.703125 C 20.78125 -5.347656 19.957031 -4.175781 18.90625 -3.1875 C 17.851562 -2.207031 16.609375 -1.429688 15.171875 -0.859375 C 13.734375 -0.285156 12.191406 0 10.546875 0 Z M 10.515625 -18.125 L 6.609375 -18.125 L 6.609375 -4.09375 L 10.515625 -4.09375 C 11.484375 -4.09375 12.394531 -4.269531 13.25 -4.625 C 14.113281 -4.988281 14.863281 -5.484375 15.5 -6.109375 C 16.132812 -6.734375 16.628906 -7.46875 16.984375 -8.3125 C 17.347656 -9.164062 17.53125 -10.078125 17.53125 -11.046875 C 17.53125 -12.046875 17.347656 -12.976562 16.984375 -13.84375 C 16.628906 -14.707031 16.132812 -15.457031 15.5 -16.09375 C 14.863281 -16.726562 14.113281 -17.222656 13.25 -17.578125 C 12.394531 -17.941406 11.484375 -18.125 10.515625 -18.125 Z M 10.515625 -18.125 "/></g></g></g><g fill="#4a9a54" fill-opacity="1"><g transform="translate(96.764001, 72.12445)"><g><path d="M 16.546875 -2.0625 C 15.523438 -1.238281 14.476562 -0.632812 13.40625 -0.25 C 12.34375 0.125 11.15625 0.3125 9.84375 0.3125 C 8.59375 0.3125 7.421875 0.09375 6.328125 -0.34375 C 5.242188 -0.789062 4.300781 -1.394531 3.5 -2.15625 C 2.707031 -2.914062 2.082031 -3.816406 1.625 -4.859375 C 1.175781 -5.910156 0.953125 -7.039062 0.953125 -8.25 C 0.953125 -9.4375 1.164062 -10.550781 1.59375 -11.59375 C 2.03125 -12.644531 2.628906 -13.554688 3.390625 -14.328125 C 4.160156 -15.109375 5.066406 -15.71875 6.109375 -16.15625 C 7.160156 -16.601562 8.28125 -16.828125 9.46875 -16.828125 C 10.625 -16.828125 11.703125 -16.597656 12.703125 -16.140625 C 13.710938 -15.691406 14.582031 -15.070312 15.3125 -14.28125 C 16.050781 -13.5 16.625 -12.5625 17.03125 -11.46875 C 17.445312 -10.382812 17.65625 -9.207031 17.65625 -7.9375 L 17.65625 -6.796875 L 5.328125 -6.796875 C 5.628906 -5.753906 6.203125 -4.914062 7.046875 -4.28125 C 7.890625 -3.644531 8.882812 -3.328125 10.03125 -3.328125 C 10.75 -3.328125 11.425781 -3.441406 12.0625 -3.671875 C 12.695312 -3.910156 13.238281 -4.242188 13.6875 -4.671875 Z M 9.359375 -13.234375 C 8.367188 -13.234375 7.515625 -12.929688 6.796875 -12.328125 C 6.078125 -11.734375 5.578125 -10.925781 5.296875 -9.90625 L 13.40625 -9.90625 C 13.125 -10.875 12.617188 -11.671875 11.890625 -12.296875 C 11.160156 -12.921875 10.316406 -13.234375 9.359375 -13.234375 Z M 9.359375 -13.234375 "/></g></g></g><g fill="#4a9a54" fill-opacity="1"><g transform="translate(114.890875, 72.12445)"><g><path d="M 7.109375 0 L 0 -16.546875 L 4.734375 -16.546875 L 9.265625 -5.53125 L 13.78125 -16.546875 L 18.421875 -16.546875 L 11.296875 0 Z M 7.109375 0 "/></g></g></g><g fill="#4a9a54" fill-opacity="1"><g transform="translate(132.827273, 72.12445)"><g><path d="M 0.3125 -1.96875 L 2.46875 -4.859375 C 3.445312 -4.222656 4.367188 -3.75 5.234375 -3.4375 C 6.109375 -3.132812 6.976562 -2.984375 7.84375 -2.984375 C 8.8125 -2.984375 9.585938 -3.140625 10.171875 -3.453125 C 10.753906 -3.773438 11.046875 -4.203125 11.046875 -4.734375 C 11.046875 -5.148438 10.878906 -5.484375 10.546875 -5.734375 C 10.222656 -5.992188 9.703125 -6.175781 8.984375 -6.28125 L 5.8125 -6.765625 C 4.175781 -7.015625 2.929688 -7.539062 2.078125 -8.34375 C 1.222656 -9.15625 0.796875 -10.226562 0.796875 -11.5625 C 0.796875 -13.144531 1.421875 -14.410156 2.671875 -15.359375 C 3.921875 -16.316406 5.59375 -16.796875 7.6875 -16.796875 C 8.894531 -16.796875 10.066406 -16.617188 11.203125 -16.265625 C 12.347656 -15.921875 13.441406 -15.410156 14.484375 -14.734375 L 12.375 -11.9375 C 11.46875 -12.46875 10.601562 -12.863281 9.78125 -13.125 C 8.957031 -13.394531 8.117188 -13.53125 7.265625 -13.53125 C 6.484375 -13.53125 5.851562 -13.378906 5.375 -13.078125 C 4.90625 -12.785156 4.671875 -12.394531 4.671875 -11.90625 C 4.671875 -11.457031 4.84375 -11.113281 5.1875 -10.875 C 5.539062 -10.632812 6.117188 -10.457031 6.921875 -10.34375 L 10.09375 -9.875 C 11.707031 -9.644531 12.953125 -9.113281 13.828125 -8.28125 C 14.703125 -7.457031 15.140625 -6.410156 15.140625 -5.140625 C 15.140625 -4.359375 14.953125 -3.632812 14.578125 -2.96875 C 14.210938 -2.300781 13.710938 -1.722656 13.078125 -1.234375 C 12.441406 -0.753906 11.679688 -0.375 10.796875 -0.09375 C 9.910156 0.175781 8.945312 0.3125 7.90625 0.3125 C 6.40625 0.3125 5 0.117188 3.6875 -0.265625 C 2.375 -0.660156 1.25 -1.226562 0.3125 -1.96875 Z M 0.3125 -1.96875 "/></g></g></g></svg>